<svg width="1030" height="267" viewBox="0 0 1030 267" fill="none" xmlns="http://www.w3.org/2000/svg">
<path d="M724.488 266.999V239.322H713.896V236.537H738.266V239.322H727.674V266.999H724.488Z" fill="white"/>
<path d="M630.125 266.999V236.537H641.547C644.133 236.537 646.357 236.958 648.217 237.799C650.077 238.611 651.501 239.801 652.489 241.367C653.506 242.905 654.015 244.776 654.015 246.981C654.015 249.128 653.506 250.985 652.489 252.551C651.501 254.089 650.077 255.278 648.217 256.12C646.357 256.932 644.133 257.338 641.547 257.338H631.912L633.351 255.858V266.999H630.125ZM650.963 266.999L643.116 255.945H646.604L654.494 266.999H650.963ZM633.351 256.12L631.912 254.596H641.46C644.511 254.596 646.822 253.929 648.391 252.595C649.989 251.26 650.789 249.389 650.789 246.981C650.789 244.544 649.989 242.658 648.391 241.324C646.822 239.989 644.511 239.322 641.46 239.322H631.912L633.351 237.799V256.12Z" fill="white"/>
<path d="M546.156 250.158H562.094V252.899H546.156V250.158ZM546.5 264.214H564.636V266.999H543.312V236.537H563.989V239.322H546.5V264.214Z" fill="white"/>
<path d="M455.734 266.999V236.537H467.385C470.024 236.537 472.292 236.958 474.189 237.799C476.087 238.611 477.539 239.801 478.547 241.367C479.585 242.905 480.104 244.776 480.104 246.981C480.104 249.128 479.585 250.985 478.547 252.551C477.539 254.089 476.087 255.278 474.189 256.12C472.292 256.961 470.024 257.381 467.385 257.381H457.558L459.025 255.858V266.999H455.734ZM459.025 256.12L457.558 254.553H467.296C470.409 254.553 472.766 253.9 474.367 252.595C475.998 251.26 476.813 249.389 476.813 246.981C476.813 244.544 475.998 242.658 474.367 241.324C472.766 239.989 470.409 239.322 467.296 239.322H457.558L459.025 237.799V256.12Z" fill="white"/>
<path d="M365.871 266.999L378.17 250.114V252.595L366.6 236.537H370.242L379.969 249.94L378.555 249.984L388.283 236.537H391.711L380.269 252.377V250.114L392.525 266.999H388.84L378.47 252.682H379.798L369.513 266.999H365.871Z" fill="white"/>
<path d="M287.993 250.158H303.932V252.899H287.993V250.158ZM288.338 264.214H306.473V266.999H285.15V236.537H305.827V239.322H288.338V264.214Z" fill="white"/>
<path d="M1004.76 195.059C1003.97 195.059 1003.25 194.591 1002.93 193.865L983.278 149.185C982.958 148.459 982.24 147.99 981.447 147.99H931.324C930.531 147.99 929.813 148.459 929.493 149.185L909.81 193.936C909.51 194.619 908.835 195.059 908.089 195.059V195.059C906.733 195.059 905.823 193.668 906.366 192.426L964.455 59.5427C964.773 58.8144 965.493 58.3438 966.288 58.3438H967.967C968.762 58.3438 969.482 58.8144 969.8 59.5427L1027.82 192.258C1028.39 193.58 1027.43 195.059 1025.98 195.059H1004.76ZM933.008 140.889C932.428 142.211 933.396 143.693 934.839 143.693H977.932C979.376 143.693 980.344 142.211 979.763 140.889L958.217 91.8112C957.517 90.2165 955.254 90.2165 954.554 91.8112L933.008 140.889Z" fill="white"/>
<path d="M891.537 60.3437C891.537 59.2392 892.432 58.3438 893.537 58.3438H893.834C894.938 58.3438 895.834 59.2392 895.834 60.3437V193.059C895.834 194.164 894.938 195.059 893.834 195.059H891.685C891.603 195.059 891.537 194.993 891.537 194.912V194.912C891.537 194.881 891.527 194.851 891.509 194.825L809.615 81.1456C808.48 79.5703 805.992 80.3731 805.992 82.3147V193.059C805.992 194.164 805.097 195.059 803.992 195.059H803.891C802.786 195.059 801.891 194.164 801.891 193.059V60.3437C801.891 59.2392 802.786 58.3438 803.891 58.3438H817.858C818.501 58.3438 819.105 58.6533 819.481 59.1756L887.914 154.282C889.048 155.859 891.537 155.056 891.537 153.114V60.3437Z" fill="white"/>
<path d="M766.949 195.059L746.772 149.185C746.452 148.459 745.734 147.99 744.941 147.99H694.818C694.025 147.99 693.307 148.459 692.988 149.185L673.305 193.936C673.004 194.619 672.329 195.059 671.583 195.059V195.059C670.227 195.059 669.317 193.668 669.86 192.426L728.473 58.3438H732.77L792.534 195.059H766.949ZM696.502 140.889C695.922 142.211 696.89 143.693 698.333 143.693H741.426C742.87 143.693 743.838 142.211 743.258 140.889L721.711 91.8112C721.011 90.2165 718.749 90.2165 718.048 91.8112L696.502 140.889Z" fill="white"/>
<path d="M667.222 182.764C667.39 182.412 667.735 182.169 668.125 182.169V182.169C668.82 182.169 669.276 182.896 668.973 183.522L663.943 193.93C663.609 194.621 662.909 195.059 662.142 195.059H577.684C576.579 195.059 575.684 194.164 575.684 193.059V60.3437C575.684 59.2392 576.579 58.3438 577.684 58.3438H599.269C600.374 58.3438 601.269 59.2392 601.269 60.3437V188.763C601.269 189.867 602.164 190.763 603.269 190.763H648.143C648.143 190.763 663.41 190.763 667.222 182.764Z" fill="white"/>
<path d="M474.933 58.6972C511.493 48.748 549.149 71.0888 559.406 108.78C569.612 146.282 548.469 184.624 511.909 194.573C475.537 204.471 437.882 182.13 427.676 144.628C417.419 106.937 438.561 68.5951 474.933 58.6972ZM517.463 188.204C538.331 180.096 544.637 145.994 531.329 111.967C518.209 77.8893 490.436 56.9072 469.568 65.0151C448.7 73.123 442.394 107.225 455.702 141.252C468.822 175.33 496.594 196.312 517.463 188.204Z" fill="white"/>
<path fill-rule="evenodd" clip-rule="evenodd" d="M530.399 112.332L530.397 112.327C523.893 95.4333 513.772 81.8307 502.751 73.468C491.713 65.0931 479.92 62.0661 469.931 65.947C459.941 69.8284 453.29 79.9927 450.804 93.5933C448.321 107.175 450.037 124.018 456.635 140.887L456.637 140.892C463.14 157.785 473.261 171.388 484.282 179.751C495.32 188.126 507.113 191.153 517.102 187.272C527.092 183.39 533.743 173.226 536.229 159.625C538.712 146.043 536.996 129.2 530.399 112.332ZM474.672 57.7321C511.793 47.6303 549.978 70.3217 560.372 108.517C570.715 146.526 549.292 185.436 512.173 195.538C475.24 205.588 437.055 182.897 426.712 144.89C416.319 106.697 437.737 67.7832 474.672 57.7321ZM559.407 108.78C549.15 71.0887 511.495 48.7479 474.934 58.6971C438.563 68.595 417.42 106.937 427.677 144.627C437.883 182.13 475.539 204.471 511.91 194.573C548.471 184.624 569.613 146.282 559.407 108.78ZM531.33 111.967C544.638 145.994 538.332 180.096 517.464 188.204C496.596 196.312 468.823 175.33 455.703 141.251C442.395 107.224 448.701 73.1228 469.569 65.0149C490.438 56.907 518.21 77.8891 531.33 111.967Z" fill="white"/>
<path d="M411.302 193.059C411.302 194.164 410.407 195.059 409.302 195.059H387.717C386.612 195.059 385.717 194.164 385.717 193.059V60.3437C385.717 59.2392 386.612 58.3438 387.717 58.3438H409.302C410.407 58.3438 411.302 59.2392 411.302 60.3437V193.059Z" fill="white"/>
<path d="M303.034 58.3438C345.807 58.3438 371.392 87.054 371.392 126.702C371.392 166.154 345.807 195.059 303.034 195.059H258.309V58.3438H303.034ZM303.034 190.763C328.62 190.763 343.658 169.279 343.658 126.702C343.658 83.9291 328.62 62.4452 303.034 62.4452H285.894C284.789 62.4452 283.894 63.3407 283.894 64.4452V188.763C283.894 189.867 284.789 190.763 285.894 190.763H303.034Z" fill="white"/>
<path d="M244.502 182.892C244.713 182.466 245.134 182.169 245.61 182.169V182.169C246.321 182.169 246.862 182.808 246.745 183.51L245.099 193.388C244.938 194.353 244.104 195.059 243.126 195.059H155.025C153.921 195.059 153.025 194.164 153.025 193.059V60.3437C153.025 59.2392 153.921 58.3438 155.025 58.3438H238.833C239.809 58.3438 240.643 59.0479 240.805 60.01L242.447 69.7081C242.564 70.404 242.028 71.0388 241.322 71.0388V71.0388C240.843 71.0388 240.421 70.7345 240.214 70.3018C236.458 62.4452 221.188 62.4452 221.188 62.4452H180.611C179.506 62.4452 178.611 63.3407 178.611 64.4452V122.551C178.611 123.657 179.507 124.552 180.613 124.551L229.498 124.502C230.603 124.501 231.5 125.397 231.5 126.502V129.654C231.5 129.845 231.345 130 231.154 130V130C231.056 130 230.963 129.959 230.897 129.886L230.377 129.312C229.998 128.893 229.459 128.655 228.895 128.655H180.611C179.506 128.655 178.611 129.55 178.611 130.655V188.763C178.611 189.867 179.506 190.763 180.611 190.763H225.485C225.485 190.763 240.589 190.763 244.502 182.892Z" fill="white"/>
<path d="M107.065 59.6438C107.357 58.862 108.104 58.3438 108.938 58.3438H131.331C132.436 58.3438 133.331 59.2392 133.331 60.3437V193.059C133.331 194.164 132.436 195.059 131.331 195.059H109.55C108.446 195.059 107.55 194.164 107.55 193.059V80.7332C107.55 78.5055 104.457 77.9462 103.677 80.0329L61.1623 193.76C60.8702 194.541 60.1234 195.059 59.289 195.059H57.6792C56.889 195.059 56.1728 194.594 55.8517 193.872L13.1379 97.8103C12.2604 95.8367 9.31046 96.4629 9.31046 98.6229V193.059C9.31046 194.164 8.41502 195.059 7.31046 195.059H7.20898C6.10441 195.059 5.20898 194.164 5.20898 193.059V60.3437C5.20898 59.2392 6.10441 58.3438 7.20898 58.3438H20.8942C21.688 58.3438 22.4068 58.8133 22.7257 59.5403L66.3135 158.906C67.0349 160.55 69.3901 160.484 70.0185 158.802L107.065 59.6438Z" fill="white"/>
<path d="M796.857 250L1023.41 253.463H796.857V250Z" fill="white"/>
<path d="M0 253.463L226.557 250V253.463H0Z" fill="white"/>
<path d="M0 3L514.5 0L1029 3L514.5 4L0 3Z" fill="white"/>
</svg>
